<svg xmlns="http://www.w3.org/2000/svg" viewBox="0 0 773.88 78.18"><defs><style>.cls-1 { fill: #4daf4e; } .cls-2 { fill: #2d98d4; }</style></defs><title>Asset 4brightGB</title><g id="Layer_2"><g id="Layer_1-2"><path d="M51.9 52.22a25.13 25.13 0 0 1-7.52 18.4A25 25 0 0 1 26 78.2a25.14 25.14 0 0 1-18.48-7.5A25 25 0 0 1 0 52.23 24.8 24.8 0 0 1 7.57 33.9 25.18 25.18 0 0 1 26 26.37a25.86 25.86 0 0 1 12.8 3.3V0h13.1zm-13.1 0a12.25 12.25 0 0 0-3.78-9 12.35 12.35 0 0 0-9-3.77 12.53 12.53 0 0 0-9.12 3.72 12.2 12.2 0 0 0-3.8 9 12.37 12.37 0 0 0 3.8 9.1 12.46 12.46 0 0 0 9.1 3.82 12.3 12.3 0 0 0 9.07-3.78 12.47 12.47 0 0 0 3.73-9.1zM110.48 52.23a25.1 25.1 0 0 1-7.48 18.4 24.92 24.92 0 0 1-18.38 7.55 25.63 25.63 0 0 1-26-26 24.84 24.84 0 0 1 7.56-18.34 25.22 25.22 0 0 1 18.43-7.5 25.66 25.66 0 0 1 25.9 25.84zm-13.1 0a12.9 12.9 0 0 0-12.8-12.75 12.56 12.56 0 0 0-9.12 3.72 12.2 12.2 0 0 0-3.78 9 12.36 12.36 0 0 0 3.78 9.1 12.5 12.5 0 0 0 9.12 3.76 12.3 12.3 0 0 0 9.07-3.77 12.44 12.44 0 0 0 3.74-9.07zM142.3 76.73a25.18 25.18 0 0 1-18.43-7.5 24.86 24.86 0 0 1-7.57-18.37V0h13.1v26.38h12.9v11.16h-12.9v13.3a12.3 12.3 0 0 0 3.78 9.06 12.5 12.5 0 0 0 9.12 3.73zM192.83 70.9a25.85 25.85 0 0 1-43.94-18.67 24.85 24.85 0 0 1 7.56-18.34 25.2 25.2 0 0 1 18.43-7.52A25 25 0 0 1 192.15 33l-7.86 10.55a12.33 12.33 0 0 0-9.4-4.07 12.53 12.53 0 0 0-9.13 3.72 12.2 12.2 0 0 0-3.78 9 12.9 12.9 0 0 0 12.9 12.86 12 12 0 0 0 9.6-4.46zM249.3 52.23a25.1 25.1 0 0 1-7.53 18.4 25.93 25.93 0 0 1-44.38-18.4A24.8 24.8 0 0 1 205 33.9a26.3 26.3 0 0 1 36.8 0 24.92 24.92 0 0 1 7.5 18.33zm-13.1 0a12.9 12.9 0 0 0-12.8-12.75 12.53 12.53 0 0 0-9.13 3.72 12.2 12.2 0 0 0-3.78 9 12.85 12.85 0 1 0 25.7 0zM343 76.73h-13.1V52.25a12.72 12.72 0 0 0-12.8-12.77 12.14 12.14 0 0 0-11 6.1v31.15H293V52.25a12.26 12.26 0 0 0-3.8-9 12.44 12.44 0 0 0-9.05-3.77A12.6 12.6 0 0 0 271 43.2a12.22 12.22 0 0 0-3.8 9v24.53h-13.06v-24.5a24.84 24.84 0 0 1 7.56-18.34 26.17 26.17 0 0 1 36.86.15 26.17 26.17 0 0 1 36.86-.16A24.8 24.8 0 0 1 343 52.22z" class="cls-1"/><path d="M376.5 46.42v6.5h-24.7v-6.5zM475.05 76.73H462V52.25a12.74 12.74 0 0 0-12.8-12.77 12.15 12.15 0 0 0-11 6.1v31.15h-13.1V52.25a12.27 12.27 0 0 0-3.8-9 12.42 12.42 0 0 0-9.06-3.77 12.6 12.6 0 0 0-9.15 3.72 12.22 12.22 0 0 0-3.8 9v24.53h-13.1v-24.5a24.8 24.8 0 0 1 7.57-18.34 26.17 26.17 0 0 1 36.86.15 26.17 26.17 0 0 1 36.86-.16 24.84 24.84 0 0 1 7.55 18.33zM532.18 52.23a25.95 25.95 0 1 1-51.9 0 24.84 24.84 0 0 1 7.57-18.34 26.32 26.32 0 0 1 36.82 0 24.9 24.9 0 0 1 7.5 18.33zm-13.1 0a12.9 12.9 0 0 0-12.8-12.75 12.53 12.53 0 0 0-9.1 3.72 12.17 12.17 0 0 0-3.8 9 12.33 12.33 0 0 0 3.8 9.1 12.46 12.46 0 0 0 9.1 3.76 12.3 12.3 0 0 0 9.07-3.77 12.44 12.44 0 0 0 3.74-9.07zM589.5 76.73h-13.08V52.25a12.27 12.27 0 0 0-3.8-9 12.42 12.42 0 0 0-9.06-3.77 12.6 12.6 0 0 0-9.15 3.72 12.22 12.22 0 0 0-3.8 9v24.53h-13.08v-24.5a24.84 24.84 0 0 1 7.56-18.34 26.37 26.37 0 0 1 36.86 0 24.8 24.8 0 0 1 7.57 18.33zM611.43 15.23a7.66 7.66 0 0 1-2.23 5.58 7.43 7.43 0 0 1-5.53 2.3 7.8 7.8 0 0 1-7.86-7.87 7.43 7.43 0 0 1 2.3-5.53 7.66 7.66 0 0 1 5.57-2.23 7.46 7.46 0 0 1 5.48 2.28 7.46 7.46 0 0 1 2.28 5.48zm-1.16 61.5h-13.1V26.38h13.1zM644.9 76.73a25.18 25.18 0 0 1-18.43-7.5 24.86 24.86 0 0 1-7.57-18.37V0H632v26.38h12.9v11.16H632v13.3a12.3 12.3 0 0 0 3.78 9.06 12.5 12.5 0 0 0 9.12 3.73zM701.45 52.23a25.1 25.1 0 0 1-7.52 18.4 25.93 25.93 0 0 1-44.38-18.4 24.8 24.8 0 0 1 7.57-18.34 26.3 26.3 0 0 1 36.8 0 24.92 24.92 0 0 1 7.53 18.33zm-13.1 0a12.9 12.9 0 0 0-12.8-12.75 12.53 12.53 0 0 0-9.12 3.72 12.2 12.2 0 0 0-3.78 9 12.85 12.85 0 1 0 25.7 0zM732.3 39.45a12.57 12.57 0 0 0-9.13 3.73 12.24 12.24 0 0 0-3.78 9v24.5h-13.1V52.23a24.84 24.84 0 0 1 7.56-18.34 25.22 25.22 0 0 1 18.43-7.52zM773.88 29.84a15.17 15.17 0 1 1-15.12-14.76 14.83 14.83 0 0 1 15.12 14.76zm-26.55 0a11.44 11.44 0 0 0 11.52 11.8c6.48 0 11.25-5.23 11.25-11.7s-4.77-11.9-11.34-11.9a11.47 11.47 0 0 0-11.43 11.8zm9.1 7.74H753V22.82a29.9 29.9 0 0 1 5.67-.45c2.8 0 4.05.45 5.13 1.08a4.1 4.1 0 0 1 1.44 3.24c0 1.6-1.26 2.87-3.06 3.4v.2c1.44.53 2.25 1.6 2.7 3.6a11.28 11.28 0 0 0 1.12 3.68h-3.7a12.64 12.64 0 0 1-1.2-3.58c-.27-1.62-1.17-2.34-3.06-2.34h-1.62zm.08-8.37h1.63c1.9 0 3.42-.62 3.42-2.15 0-1.35-1-2.25-3.15-2.25a8.2 8.2 0 0 0-1.9.18z" class="cls-2"/></g></g></svg>